<svg width="42" height="42" viewBox="0 0 42 42" fill="none" xmlns="http://www.w3.org/2000/svg">
<path d="M41.7299 22.8703L38.6436 17.9728C38.399 17.5845 38.3166 17.1157 38.4135 16.6674L39.6388 11.0097C39.8298 10.1279 39.3197 9.24539 38.4609 8.96978L32.9485 7.20202C32.5116 7.06181 32.147 6.75594 31.9332 6.35015L29.2351 1.22871C28.8148 0.430301 27.8569 0.081881 27.0217 0.422821L21.6623 2.61216C21.2377 2.78524 20.7618 2.78524 20.3371 2.61216L14.9787 0.423232C14.1434 0.0822927 13.1855 0.430713 12.7648 1.22912L10.0667 6.35008C9.8529 6.75587 9.48828 7.06174 9.0514 7.20195L3.53913 8.96971C2.67979 9.24532 2.17016 10.1279 2.36122 11.0096L3.58601 16.6673C3.68332 17.1156 3.60049 17.5846 3.35597 17.9728L0.270013 22.8703C-0.211132 23.6337 -0.0336619 24.6372 0.679305 25.1903L5.25426 28.7367C5.61709 29.018 5.85502 29.43 5.91727 29.8849L6.70127 35.6202C6.82308 36.5142 7.6044 37.1694 8.5054 37.1343L14.2898 36.9104C14.7482 36.8924 15.1952 37.0554 15.5357 37.3634L19.8223 41.253C20.4906 41.8591 21.5103 41.8591 22.1781 41.253L26.4652 37.3634C26.8048 37.055 27.2522 36.8924 27.711 36.9104L33.495 37.1343C34.3968 37.1694 35.1773 36.5138 35.2996 35.6202L36.0836 29.8849C36.1458 29.43 36.3837 29.0181 36.7461 28.7367L41.3211 25.1903C42.034 24.6372 42.2111 23.6337 41.7299 22.8703ZM16.1435 27.9944L11.0352 24.4265L13.1347 29.2924L11.7355 29.8963L8.51549 22.4352L9.98089 21.8024L15.1856 25.4671L13.0348 20.4847L14.434 19.8803L17.6549 27.3418L16.1435 27.9944ZM19.2477 26.6543L16.0278 19.1932L21.5602 16.8049L22.1045 18.0674L18.0782 19.8049L18.7921 21.4588L22.5383 19.8418L23.0808 21.099L19.3346 22.7156L20.211 24.7463L24.3793 22.9474L24.9218 24.2047L19.2477 26.6543ZM31.86 21.2113L27.9665 16.2739L28.8924 22.4913L27.2587 23.1964L22.2578 16.5044L23.7994 15.8383L27.1364 20.4781L26.2885 14.7647L28.0807 13.9913L31.6378 18.6386L30.5335 12.9326L32.0501 12.2779L33.4581 20.5216L31.86 21.2113Z" fill="white"/>
</svg>
