<svg width="26" height="26" viewBox="0 0 26 26" fill="none" xmlns="http://www.w3.org/2000/svg">
<g clip-path="url(#clip0_12386_42)">
<path d="M10.5674 10.2267L11.4774 10.7722C11.682 10.8903 11.9435 10.8226 12.0652 10.6201C12.1869 10.4176 12.124 10.1548 11.9236 10.0295L11.1194 9.54648C11.5075 8.88611 11.708 8.13243 11.7 7.36669C11.7 5.4552 10.5339 3.90002 9.1 3.90002C7.66606 3.90002 6.5 5.4552 6.5 7.36669C6.5 9.27818 7.66606 10.8334 9.1 10.8334C9.64823 10.824 10.1725 10.6074 10.5674 10.2267ZM7.36667 7.36669C7.36667 5.95751 8.16055 4.76669 9.1 4.76669C10.0395 4.76669 10.8333 5.95751 10.8333 7.36669C10.8399 7.97501 10.682 8.57402 10.3767 9.10002L9.75656 8.72826C9.55195 8.6102 9.29043 8.67791 9.16877 8.8804C9.04689 9.08289 9.10994 9.34568 9.31032 9.47094L9.77687 9.75087C9.57756 9.88819 9.34206 9.96331 9.1 9.96669C8.16055 9.96669 7.36667 8.77587 7.36667 7.36669Z" fill="#797979"/>
<path d="M17.3082 14.5878C17.2468 14.4151 17.0832 14.2998 16.9 14.2998C16.7168 14.2998 16.5534 14.4151 16.4919 14.5878L14.3252 20.6544C14.2448 20.8798 14.3624 21.1278 14.5878 21.2082C14.8133 21.2886 15.0611 21.1711 15.1415 20.9456L15.8129 19.0667H17.9874L18.6585 20.9456C18.7201 21.1182 18.8834 21.2334 19.0667 21.2334C19.2076 21.2334 19.3398 21.165 19.4209 21.0497C19.5021 20.9346 19.5222 20.7871 19.4748 20.6544L17.3082 14.5878ZM16.1222 18.2L16.9 16.0217L17.6801 18.2H16.1222Z" fill="#797979"/>
<path d="M24.2788 21.4656C25.3824 20.2001 25.9935 18.5793 25.9999 16.9C25.9999 12.9676 22.5489 9.66344 18.0556 9.17446C18.151 8.72251 18.1994 8.26188 18.1999 7.79998C18.1999 3.49924 14.1179 0 9.09989 0C4.08187 0 -8.99662e-05 3.49924 -8.99662e-05 7.79998C0.00668085 9.34415 0.527188 10.842 1.47933 12.0576L0.0280512 15.8795C-0.0225183 16.0126 -0.00432173 16.1622 0.0765049 16.2794C0.157543 16.3966 0.290844 16.4666 0.433242 16.4666C0.49291 16.4664 0.551943 16.4541 0.606533 16.4302L4.69992 14.6303C5.72231 15.1104 6.81918 15.4129 7.94335 15.5246C7.84814 15.9768 7.8001 16.4379 7.79989 16.9C7.79989 21.2009 11.8819 24.6999 16.8999 24.6999C18.2894 24.7031 19.6653 24.4272 20.9459 23.8883L25.3833 25.9593C25.5462 26.0353 25.739 26.0029 25.868 25.8779C25.9971 25.7528 26.0356 25.5611 25.9647 25.3959L24.2788 21.4656ZM4.53615 13.7562L1.20554 15.2204L2.37541 12.1354C2.43042 11.9905 2.40397 11.8274 2.3058 11.7074C1.38497 10.6126 0.876096 9.23053 0.866575 7.79998C0.866575 3.97722 4.55984 0.866665 9.09989 0.866665C13.6399 0.866665 17.3332 3.97722 17.3332 7.79998C17.3332 8.3535 17.2541 8.90426 17.0983 9.43535C16.2065 12.555 12.9155 14.7333 9.09989 14.7333C8.90459 14.7333 8.71247 14.7295 8.50935 14.7126C7.25569 14.6476 6.02869 14.3254 4.90495 13.7657C4.78942 13.7077 4.65421 13.7043 4.53615 13.7562V13.7562ZM21.1348 23.0204C21.0203 22.9668 20.8883 22.9662 20.773 23.0182C19.5538 23.5597 18.2339 23.8375 16.8999 23.8333C12.3598 23.8333 8.66656 20.7229 8.66656 16.9C8.66677 16.4613 8.71628 16.024 8.81446 15.5966C8.90925 15.6 9.00425 15.6 9.09989 15.6C9.35824 15.6 9.61426 15.5907 9.86774 15.5722C9.95449 15.5661 10.0372 15.5536 10.1227 15.5454C10.289 15.5293 10.4557 15.5147 10.6197 15.4912C10.7207 15.4764 10.819 15.4557 10.9187 15.4383C11.0639 15.4131 11.2098 15.3899 11.352 15.3585C11.458 15.3357 11.5613 15.3063 11.6656 15.2803C11.7987 15.2468 11.9326 15.2153 12.0636 15.177C12.17 15.1459 12.2737 15.1087 12.3789 15.074C12.5033 15.0327 12.6285 14.9933 12.7504 14.9479C12.8556 14.9085 12.958 14.8639 13.0615 14.8209C13.178 14.7729 13.2955 14.7255 13.408 14.6736C13.5113 14.6258 13.6109 14.5733 13.7115 14.5228C13.8206 14.4682 13.9302 14.414 14.0365 14.3554C14.1427 14.297 14.2328 14.2407 14.3299 14.1821C14.4268 14.1237 14.5339 14.0605 14.6331 13.9957C14.7324 13.9312 14.8208 13.8658 14.9135 13.8008C15.0064 13.7359 15.102 13.6669 15.1934 13.5967C15.2848 13.5264 15.3703 13.4536 15.4573 13.38C15.5444 13.3064 15.6308 13.2344 15.7148 13.1587C15.7988 13.0827 15.8794 13.0029 15.96 12.9238C16.0406 12.8445 16.1191 12.7668 16.1949 12.6858C16.2708 12.6047 16.3457 12.5186 16.4189 12.4331C16.4921 12.3479 16.5624 12.2647 16.6307 12.1784C16.6993 12.0923 16.7659 12.0002 16.8315 11.9097C16.8969 11.8191 16.9614 11.7302 17.0196 11.6384C17.0776 11.5466 17.1383 11.4518 17.1929 11.3564C17.2475 11.2611 17.3042 11.1653 17.3563 11.0673C17.4083 10.9694 17.4568 10.8733 17.504 10.7745C17.5511 10.6757 17.5985 10.5707 17.6421 10.4673C17.6859 10.3636 17.7238 10.2673 17.7615 10.1638C17.7805 10.1118 17.8046 10.0625 17.822 10.01C21.9501 10.4 25.1332 13.3705 25.1332 16.9C25.1228 18.46 24.5221 19.9583 23.4519 21.0934C23.3377 21.2189 23.3074 21.3998 23.3743 21.5557L24.7204 24.6934L21.1348 23.0204Z" fill="#797979"/>
</g>
<defs>
<clipPath id="clip0_12386_42">
<rect width="26" height="26" fill="white"/>
</clipPath>
</defs>
</svg>
