<svg width="26" height="26" viewBox="0 0 26 26" fill="none" xmlns="http://www.w3.org/2000/svg">
<g clip-path="url(#clip0_12386_14)">
<path d="M13 4.23909C13.3109 4.23909 13.5652 3.98474 13.5652 3.67387V3.39127C13.5652 3.0804 13.3109 2.82605 13 2.82605C12.6891 2.82605 12.4348 3.0804 12.4348 3.39127V3.67387C12.4348 3.98474 12.6891 4.23909 13 4.23909Z" fill="#797979"/>
<path d="M13 21.7609C12.6891 21.7609 12.4348 22.0152 12.4348 22.3261V22.6087C12.4348 22.9196 12.6891 23.1739 13 23.1739C13.3109 23.1739 13.5652 22.9196 13.5652 22.6087V22.3261C13.5652 22.0152 13.3109 21.7609 13 21.7609Z" fill="#797979"/>
<path d="M3.6739 12.4348H3.3913C3.08043 12.4348 2.82608 12.6892 2.82608 13C2.82608 13.3109 3.08043 13.5652 3.3913 13.5652H3.6739C3.98477 13.5652 4.23912 13.3109 4.23912 13C4.23912 12.6892 3.98477 12.4348 3.6739 12.4348Z" fill="#797979"/>
<path d="M22.6087 12.4348H22.3261C22.0152 12.4348 21.7609 12.6892 21.7609 13C21.7609 13.3109 22.0152 13.5652 22.3261 13.5652H22.6087C22.9196 13.5652 23.1739 13.3109 23.1739 13C23.1739 12.6892 22.9196 12.4348 22.6087 12.4348Z" fill="#797979"/>
<path d="M6.61303 5.82179C6.38694 5.5957 6.04781 5.5957 5.82173 5.82179C5.59564 6.04787 5.59564 6.387 5.82173 6.61309L6.01955 6.81092C6.1326 6.92396 6.2739 6.98048 6.41521 6.98048C6.55651 6.98048 6.69781 6.92396 6.81086 6.81092C7.03695 6.58483 7.03695 6.2457 6.81086 6.01961L6.61303 5.82179Z" fill="#797979"/>
<path d="M6.01955 19.1891L5.82173 19.3869C5.59564 19.613 5.59564 19.9521 5.82173 20.1782C5.93477 20.2913 6.07607 20.3478 6.21738 20.3478C6.35868 20.3478 6.49999 20.2913 6.61303 20.1782L6.81086 19.9804C7.03695 19.7543 7.03695 19.4152 6.81086 19.1891C6.58477 18.963 6.24564 18.963 6.01955 19.1891Z" fill="#797979"/>
<path d="M19.3869 5.82179L19.1891 6.01961C18.963 6.2457 18.963 6.58483 19.1891 6.81092C19.3022 6.92396 19.4435 6.98048 19.5848 6.98048C19.7261 6.98048 19.8674 6.92396 19.9804 6.81092L20.1782 6.61309C20.4043 6.387 20.4043 6.04787 20.1782 5.82179C19.9522 5.5957 19.613 5.5957 19.3869 5.82179Z" fill="#797979"/>
<path d="M13.5652 12.7739V7.6304C13.5652 7.31953 13.3109 7.06519 13 7.06519C12.6891 7.06519 12.4348 7.31953 12.4348 7.6304V13C12.4348 13.1413 12.4913 13.2826 12.6043 13.3956L18.7935 19.5848C18.9065 19.6978 19.0478 19.7543 19.1891 19.7543C19.3304 19.7543 19.4717 19.6978 19.5848 19.5848C19.8109 19.3587 19.8109 19.0195 19.5848 18.7934L13.5652 12.7739Z" fill="#797979"/>
<path d="M13 0C5.82174 0 0 5.82174 0 13C0 20.1783 5.82174 26 13 26C20.1783 26 26 20.1783 26 13C26 5.82174 20.1783 0 13 0ZM13 24.8696C6.44348 24.8696 1.13043 19.5565 1.13043 13C1.13043 6.44348 6.44348 1.13043 13 1.13043C19.5565 1.13043 24.8696 6.44348 24.8696 13C24.8696 19.5565 19.5565 24.8696 13 24.8696Z" fill="#797979"/>
</g>
<defs>
<clipPath id="clip0_12386_14">
<rect width="26" height="26" fill="white"/>
</clipPath>
</defs>
</svg>
